# xmcd CD database file
#
# Track frame offsets:
#	150
#	19574
#	52930
#	73753
#	91198
#	115554
#	129185
#	154456
#	170369
#
# Disc length: 2541 seconds
#
# Revision: 0
# Processed by: cddbd v1.5.2PL0 Copyright (c) Steve Scherf et al.
# Submitted via: CDex 1.51
#
DISCID=6509eb09
DTITLE=Laurent Marode - Elephant Walk
DYEAR=2013
DGENRE=Jazz
TTITLE0=Boppin' with Alban
TTITLE1=You must believe in spring
TTITLE2=Elephant Walk
TTITLE3=Almost like being in love
TTITLE4=I didn't know what time it was
TTITLE5=Samba not
TTITLE6=Wrap your troubles in dreams
TTITLE7=Misty
TTITLE8=Midwater Blues
EXTD=YEAR: 2013
EXTT0=
EXTT1=
EXTT2=
EXTT3=
EXTT4=
EXTT5=
EXTT6=
EXTT7=
EXTT8=
PLAYORDER=
